<svg width="174" height="24" viewBox="0 0 174 24" fill="none" xmlns="http://www.w3.org/2000/svg">
<path d="M26.0585 1.18125C25.7476 2.42504 25.0418 5.38645 23.946 10.0655L22.9194 14.5372C22.1544 12.3013 21.5473 10.3073 21.1031 8.55515C20.6589 6.80299 20.2394 4.99653 19.8445 3.13578C19.5977 1.9759 19.4496 1.32438 19.4102 1.18125L11.518 1.21086C12.1202 2.37075 12.9987 4.39931 14.1586 7.30149L13.6946 9.03885L12.4509 13.5106C11.0837 9.01911 9.89417 4.90769 8.87742 1.17632H0.215305C0.649645 1.98577 1.5973 4.10317 3.05826 7.52853C4.51922 10.9539 5.85185 14.2312 7.06603 17.3604C8.27527 20.4896 8.9021 22.3504 8.94652 22.9525H13.2356C13.2554 22.0394 14.3313 18.7572 16.4685 13.1059C18.0232 17.163 19.2423 20.4452 20.1357 22.9525H24.4544C25.8858 19.0188 27.4899 14.7149 29.2716 10.0457C31.0534 5.37658 32.2331 2.42011 32.8105 1.17632H26.0684L26.0585 1.18125ZM45.3817 13.9795C45.5693 13.5056 45.663 13.1009 45.663 12.7702C45.663 11.8176 45.3472 10.9095 44.7154 10.0507C44.0836 9.19186 43.2051 8.50086 42.0748 7.98261C40.9445 7.46437 39.6761 7.20772 38.2694 7.20772C36.6554 7.20772 35.1698 7.54828 33.8125 8.23434C32.4552 8.91546 31.3841 9.87792 30.5993 11.1069C29.8096 12.3408 29.4197 13.7426 29.4197 15.317C29.4197 16.8915 29.8146 18.1945 30.5993 19.4186C31.3841 20.6426 32.4798 21.6051 33.8766 22.3059C35.2734 23.0068 36.843 23.3622 38.5803 23.3622C39.9278 23.3622 41.1321 23.1697 42.1982 22.7896C43.2643 22.4047 44.0935 21.9062 44.6808 21.2843C45.2731 20.6624 45.5643 20.001 45.5643 19.2952C45.5643 18.8609 45.4212 18.5104 45.13 18.239C44.8388 17.9724 44.4489 17.8145 43.9504 17.775C43.3679 18.1501 42.7609 18.4512 42.1192 18.693C41.4776 18.93 40.9593 19.0484 40.5645 19.0484C39.8587 19.0484 39.2318 18.8362 38.684 18.4117C38.1361 17.9872 37.7067 17.39 37.3958 16.625L44.5723 15.1048C44.9227 14.8383 45.1941 14.4632 45.3817 13.9844V13.9795ZM38.9851 13.7623L36.8726 14.32C36.7887 13.7425 36.7492 13.1503 36.7492 12.5481C36.7492 11.8028 36.8232 11.2155 36.9664 10.791C37.1095 10.3665 37.2971 10.1543 37.5241 10.1543C37.8992 10.1543 38.2546 10.3912 38.5951 10.87C38.9357 11.3487 39.1085 11.9361 39.1085 12.6419C39.1085 13.1601 39.069 13.5303 38.9851 13.7623ZM69.8775 2.64221C68.0858 1.68963 66.0079 1.21086 63.6486 1.21086H53.8661C53.9303 2.2671 53.9599 5.99354 53.9599 12.3951C53.9599 18.7967 53.9303 22.2961 53.8661 22.9575H63.7128C66.156 22.9575 68.2635 22.5429 70.0354 21.7137C71.8073 20.8845 73.1597 19.6802 74.1024 18.0958C75.0451 16.5115 75.514 14.6112 75.514 12.3951C75.514 10.179 75.0205 8.28862 74.0382 6.60062C73.056 4.91262 71.6691 3.5948 69.8775 2.64221ZM66.7877 17.8342C66.2892 18.9102 65.6673 19.4482 64.9221 19.4482H64.1126C63.3278 19.4482 62.4542 19.0632 61.5016 18.2982V14.5076C61.5016 9.97169 61.5115 6.82273 61.5312 5.06563C61.551 4.94223 61.6102 4.85339 61.704 4.80404C61.7978 4.75468 61.9261 4.72507 62.0939 4.72507H62.3111C63.1403 4.72507 63.9596 5.10511 64.7641 5.86027C65.5736 6.61543 66.2349 7.65686 66.7532 8.98456C67.2714 10.3123 67.5281 11.793 67.5281 13.4267C67.5281 15.2924 67.2813 16.7632 66.7828 17.8392L66.7877 17.8342ZM89.3389 8.23434C87.9914 7.57296 86.4268 7.24226 84.65 7.24226C82.8731 7.24226 81.3036 7.57296 79.9611 8.23434C78.6136 8.89572 77.5722 9.8335 76.8368 11.0477C76.1014 12.2569 75.7361 13.6636 75.7361 15.2578C75.7361 16.852 76.1014 18.2933 76.8368 19.5124C77.5722 20.7364 78.6136 21.6841 79.9611 22.3553C81.3085 23.0266 82.8682 23.3671 84.65 23.3671C86.4317 23.3671 87.9963 23.0315 89.3389 22.3553C90.6863 21.6841 91.7277 20.7414 92.4631 19.5272C93.1986 18.3179 93.5638 16.9113 93.5638 15.317C93.5638 13.7228 93.1936 12.2816 92.4631 11.0625C91.7277 9.83843 90.6863 8.90065 89.3389 8.23434ZM85.9678 19.4334C85.8148 20.0652 85.6223 20.381 85.3952 20.381C84.5858 20.381 84.0083 19.616 83.6579 18.081C83.3075 16.5509 83.1298 15.0061 83.1298 13.4514C83.1298 12.4346 83.2087 11.6399 83.3618 11.0575C83.5148 10.4801 83.727 10.1889 83.9984 10.1889C84.7437 10.1889 85.2965 10.944 85.6618 12.4543C86.0221 13.9647 86.2047 15.4552 86.2047 16.9261C86.2047 17.9626 86.1257 18.7967 85.9727 19.4285L85.9678 19.4334ZM111.081 4.10317C111.89 4.10317 112.675 4.66584 113.44 5.79611C114.205 6.92638 114.797 8.28863 115.212 9.88285C115.587 9.9865 116.08 10.0704 116.702 10.1296C117.324 10.1938 117.926 10.2234 118.504 10.2234C119.787 10.2234 120.819 9.92234 121.594 9.32019C122.368 8.71803 122.758 7.91352 122.758 6.89677C122.758 5.73688 122.329 4.69545 121.47 3.77741C120.611 2.85444 119.422 2.13877 117.897 1.62052C116.376 1.10228 114.659 0.845627 112.754 0.845627C110.518 0.845627 108.519 1.32932 106.757 2.29178C104.995 3.25423 103.618 4.5918 102.626 6.29955C101.634 8.00729 101.135 9.92728 101.135 12.0595C101.135 14.1917 101.639 16.1166 102.641 17.8392C103.642 19.5568 105.034 20.9092 106.801 21.8914C108.573 22.8736 110.562 23.3671 112.783 23.3671C114.649 23.3671 116.337 23.0957 117.847 22.5577C119.358 22.0197 120.537 21.304 121.386 20.4156C122.235 19.5272 122.66 18.5746 122.66 17.5578C122.66 16.7089 122.028 16.2104 120.764 16.0673C120.039 16.8965 119.18 17.5776 118.188 18.1156C117.196 18.6536 116.263 18.925 115.394 18.925C113.45 18.925 111.915 18.1551 110.799 16.6102C109.679 15.0653 109.121 12.9627 109.121 10.2876C109.121 8.19485 109.279 6.64504 109.605 5.62829C109.926 4.61154 110.419 4.10811 111.081 4.10811V4.10317ZM140.996 19.0583C140.749 18.7375 140.591 18.234 140.532 17.5529C140.389 16.0228 140.295 14.6754 140.25 13.5155C140.147 11.4425 139.273 9.87792 137.625 8.81181C135.976 7.74571 133.913 7.21265 131.425 7.21265C129.377 7.21265 127.817 7.49892 126.751 8.06652C125.685 8.63412 125.152 9.39915 125.152 10.3517C125.152 11.0575 125.478 11.6202 126.129 12.0447C126.781 12.4692 127.605 12.6814 128.597 12.6814C129.303 12.6814 130.029 12.558 130.774 12.3063C130.794 11.6646 130.838 11.176 130.897 10.8453C130.961 10.5146 131.114 10.3468 131.361 10.3468C131.796 10.3468 132.156 10.6281 132.447 11.1859C132.738 11.7436 132.921 12.5728 133.005 13.6685L133.034 14.1029C132.64 13.8956 132.2 13.7425 131.717 13.6389C131.228 13.5352 130.769 13.4859 130.335 13.4859C128.494 13.4859 126.983 13.9005 125.814 14.7297C124.644 15.5589 124.056 16.8422 124.056 18.5795C124.056 19.5124 124.353 20.3416 124.94 21.0622C125.532 21.7877 126.287 22.3454 127.205 22.7403C128.128 23.1351 129.076 23.3326 130.048 23.3326C130.833 23.3326 131.603 23.15 132.348 22.7896C133.094 22.4293 133.755 21.9259 134.337 21.2843C134.752 21.9062 135.295 22.38 135.966 22.7156C136.637 23.0463 137.412 23.2141 138.281 23.2141C139.234 23.2141 140.063 23.1401 140.764 22.997C141.47 22.8538 141.953 22.6761 142.225 22.4688L142.195 19.5469C141.637 19.5469 141.233 19.389 140.986 19.0632L140.996 19.0583ZM132.733 19.6308C132.338 19.6308 131.983 19.4235 131.662 19.0089C131.341 18.5943 131.179 18.0267 131.179 17.3012C131.179 16.4522 131.47 16.0278 132.047 16.0278C132.398 16.0278 132.802 16.1709 133.257 16.4621L133.38 17.8293C133.484 19.0287 133.266 19.6308 132.728 19.6308H132.733ZM157.224 8.18498C156.553 7.55321 155.635 7.23733 154.475 7.23733C153.587 7.23733 152.703 7.44462 151.834 7.85922C150.966 8.27382 150.29 8.8661 149.816 9.63113C149.544 8.96975 149.085 8.42189 148.434 7.98261C147.782 7.54334 146.997 7.33111 146.089 7.33111C145.24 7.33111 144.5 7.41008 143.868 7.56309C143.236 7.71609 142.787 7.88884 142.516 8.07639V10.9983C142.93 10.9983 143.212 11.1217 143.355 11.3734C143.498 11.6202 143.572 12.0348 143.572 12.6172C143.572 16.8027 143.552 20.2478 143.508 22.9624H150.872C150.749 21.2645 150.665 18.6634 150.625 15.164C150.665 13.9202 150.773 12.9282 150.951 12.1829C151.129 11.4376 151.361 11.0625 151.652 11.0625C152.333 11.0625 152.782 12.0694 152.989 14.0732C153.404 14.1571 153.838 14.1966 154.292 14.1966C155.556 14.1966 156.528 13.8363 157.214 13.1108C157.895 12.3852 158.241 11.4771 158.241 10.3764C158.241 9.54723 157.905 8.81675 157.229 8.18498H157.224ZM171.962 17.7701C171.38 18.1452 170.773 18.4463 170.131 18.6881C169.489 18.925 168.971 19.0435 168.576 19.0435C167.87 19.0435 167.244 18.8312 166.696 18.4068C166.148 17.9823 165.718 17.3851 165.408 16.6201L172.584 15.0999C172.934 14.8333 173.206 14.4582 173.393 13.9795C173.581 13.5056 173.675 13.1009 173.675 12.7702C173.675 11.8176 173.359 10.9095 172.727 10.0507C172.095 9.19186 171.217 8.50086 170.087 7.98261C168.956 7.46437 167.688 7.20772 166.281 7.20772C164.667 7.20772 163.182 7.54828 161.824 8.23434C160.467 8.91546 159.396 9.87792 158.611 11.1069C157.826 12.3408 157.431 13.7426 157.431 15.317C157.431 16.8915 157.826 18.1945 158.611 19.4186C159.396 20.6426 160.492 21.6051 161.888 22.3059C163.285 23.0068 164.855 23.3622 166.592 23.3622C167.94 23.3622 169.144 23.1697 170.21 22.7896C171.276 22.4047 172.105 21.9062 172.693 21.2843C173.285 20.6624 173.576 20.001 173.576 19.2952C173.576 18.8609 173.433 18.5104 173.142 18.239C172.851 17.9724 172.461 17.8145 171.962 17.775V17.7701ZM164.756 12.5531C164.756 11.8078 164.83 11.2204 164.973 10.7959C165.116 10.3715 165.304 10.1593 165.531 10.1593C165.906 10.1593 166.261 10.3962 166.602 10.8749C166.943 11.3537 167.115 11.941 167.115 12.6468C167.115 13.1651 167.076 13.5353 166.992 13.7672L164.879 14.325C164.796 13.7475 164.756 13.1552 164.756 12.5531Z" fill="#7E32D4"/>
</svg>
